<?xml version="1.0" encoding="UTF-8"?>
<svg width="800px" height="800px" fill="#d32f2f" version="1.1" viewBox="0 0 50 50" xmlns="http://www.w3.org/2000/svg">
 <path d="m25.034 0.12789c6.6118 0 12.953 2.6265 17.628 7.3018 4.6753 4.6753 7.3018 11.016 7.3018 17.628 0 13.768-11.161 24.93-24.93 24.93-13.768 0-24.93-11.161-24.93-24.93 0-13.768 11.161-24.93 24.93-24.93zm0 4.986c-11.015 0-19.944 8.9292-19.944 19.944s8.9292 19.944 19.944 19.944c11.015 0 19.944-8.9292 19.944-19.944s-8.9292-19.944-19.944-19.944zm8.814 7.6042 3.5256 3.5256-8.8142 8.814 8.8142 8.8141-3.5256 3.5256-8.8141-8.8142-8.814 8.8142-3.5256-3.5256 8.814-8.8141-8.814-8.814 3.5256-3.5256 8.814 8.814z" fill-rule="evenodd" stroke-width=".11686"/>
</svg>
